Fly_normalized_Motion_pl05
version=1
nRows=20
nColumns=43
inDegrees=yes
endheader
time		pelvis_tilt		pelvis_list		pelvis_rotation		pelvis_tx		pelvis_ty		pelvis_tz		hip_flexion_r		hip_adduction_r		hip_rotation_r		knee_angle_r		ankle_angle_r		subtalar_angle_r		mtp_angle_r		hip_flexion_l		hip_adduction_l		hip_rotation_l		knee_angle_l		ankle_angle_l		subtalar_angle_l		mtp_angle_l		lumbar_extension		lumbar_bending		lumbar_rotation		neck_flexion		neck_lateral_bending		neck_rotation		arm_flex_r		arm_add_r		arm_rot_r		elbow_flex_r		pro_sup_r		wrist_flex_r		wrist_dev_r		hand_finger_flex_r		arm_flex_l		arm_add_l		arm_rot_l		elbow_flex_l		pro_sup_l		wrist_flex_l		wrist_dev_l		hand_finger_flex_l		
0.985960		-2.240261		-0.959360		89.685369		0.006449		1.743678		1.009723		46.525883		-5.837402		-6.514612		-56.802497		-19.654091		-4.836741		15.167561		42.782754		-2.132132		-10.287702		-61.974703		-17.513233		-17.968755		20.233665		-52.998104		-1.155155		-1.655095		-2.042032		-1.552463		0.592151		19.083016		-39.630210		14.229593		78.587743		96.568614		-34.409802		-3.218193		41.425665		11.569538		-29.762694		-5.898111		81.049418		114.017372		-20.116540		13.063588		88.882508		
0.990379		-2.205462		-0.531593		89.699576		0.006543		1.733943		0.999710		45.594273		-5.822424		-6.683631		-55.316487		-20.112029		-4.806439		15.059261		41.905267		-2.235891		-10.424219		-60.686617		-17.720592		-18.178751		19.997034		-52.995950		-1.175661		-1.754177		-2.763728		-1.484102		0.703275		15.873601		-39.395010		12.807553		77.617037		96.920830		-33.897674		-3.225192		41.446608		8.532036		-29.662940		-7.173769		80.264268		114.276556		-19.980248		12.850934		88.824213		
0.994798		-2.194979		0.054516		89.710754		0.006612		1.724456		0.989639		44.433101		-5.816229		-6.854774		-53.768613		-20.532659		-4.914031		14.970572		40.792920		-2.295095		-10.583814		-59.313901		-17.874231		-18.430916		19.697546		-53.226042		-1.227989		-1.816784		-3.147213		-1.267071		0.925951		12.582098		-39.032561		10.972688		76.657840		97.375295		-32.854365		-3.395786		41.736927		5.621446		-29.412260		-8.488512		79.445540		114.617813		-19.995225		12.232805		88.688969		
0.999217		-2.209532		0.539889		89.706081		0.006681		1.714259		0.979564		43.439558		-5.852449		-7.040998		-52.356016		-20.938835		-4.866024		14.893245		39.867220		-2.351919		-10.760258		-58.121024		-18.026962		-18.425367		19.423466		-53.235813		-1.289734		-1.887447		-3.951008		-1.213317		0.978453		9.409162		-38.707967		9.453817		75.644035		97.587889		-32.051073		-3.324440		41.907279		2.725211		-29.207948		-9.605855		78.565753		114.640652		-19.976436		11.673128		88.626290		
1.003636		-2.217722		0.882364		89.712026		0.006756		1.703517		0.969513		42.609781		-5.875733		-7.215255		-50.981915		-21.340218		-4.765029		14.811675		39.125082		-2.408766		-10.907898		-56.987698		-18.203148		-18.353672		19.236097		-53.044729		-1.335714		-1.991319		-4.939740		-1.213585		1.013916		6.385745		-38.371742		8.246495		74.528105		97.534802		-31.679838		-3.158266		41.975383		-0.182544		-28.952887		-10.734520		77.682430		114.529450		-20.010712		11.379410		88.626426		
1.008056		-2.253092		1.506304		89.727638		0.006751		1.693397		0.959392		41.381685		-5.931010		-7.421167		-49.487724		-21.677029		-4.772124		14.725374		37.962425		-2.393395		-11.064176		-55.676861		-18.250834		-18.220558		18.984469		-53.239918		-1.408752		-2.006184		-5.507383		-1.020577		1.116849		3.267936		-37.963629		6.504152		73.436773		97.258500		-30.352290		-3.303804		42.275352		-2.828538		-28.636454		-11.757797		76.659603		114.390481		-19.849606		10.332055		88.603816		
1.012475		-2.237018		1.799564		89.746963		0.006832		1.682019		0.949276		40.634287		-5.941506		-7.610957		-48.247755		-22.093194		-4.614913		14.637280		37.310135		-2.449734		-11.153911		-54.664411		-18.429442		-18.111396		18.910836		-52.920365		-1.439949		-2.118863		-6.681481		-1.010094		1.136011		0.450284		-37.506790		5.450825		72.148685		96.915478		-30.248117		-3.133479		42.265690		-5.642876		-28.279852		-12.864371		75.683830		114.218930		-19.905902		10.208809		88.644380		
1.016894		-2.203995		2.498445		89.807112		0.006810		1.671474		0.939026		39.310202		-5.970683		-7.928200		-46.836162		-22.415388		-4.528721		14.549302		36.087667		-2.477279		-11.246457		-53.450092		-18.469353		-17.903020		18.850034		-53.115240		-1.440190		-2.044058		-7.479272		-0.840145		1.100954		-2.571784		-37.023922		3.704670		70.924828		96.283215		-28.779822		-3.419543		42.312144		-8.075371		-27.981559		-13.636981		74.514771		114.092735		-19.651977		9.080872		88.607879		
1.021313		-2.170142		2.849406		89.856291		0.006813		1.659793		0.928882		38.466637		-5.984543		-8.182584		-45.603303		-22.792920		-4.391590		14.455314		35.349435		-2.518728		-11.317014		-52.429564		-18.625826		-17.769793		18.862044		-52.837701		-1.441254		-2.108131		-8.614960		-0.771982		1.125108		-5.300058		-36.525479		2.585269		69.577316		95.805430		-28.425826		-3.370182		42.180289		-10.663104		-27.615723		-14.561319		73.434322		113.945939		-19.701812		8.812710		88.599870		
1.025732		-2.079224		3.633715		89.957219		0.006656		1.649005		0.918542		37.002359		-5.998637		-8.663327		-44.202299		-23.057617		-4.285242		14.331525		34.013827		-2.563863		-11.338793		-51.221595		-18.702882		-17.496872		19.070124		-53.089599		-1.347701		-1.974121		-9.390569		-0.617544		1.011118		-8.195790		-36.065391		0.943743		68.325531		94.877225		-26.743609		-3.846777		41.775940		-12.902014		-27.362609		-15.039236		72.122477		113.852331		-19.630597		7.622505		88.468131		
1.030152		-1.990513		4.320014		90.061787		0.006582		1.637533		0.908115		35.718601		-6.012256		-9.124818		-42.976464		-23.391136		-4.099923		14.179488		32.895797		-2.642114		-11.371515		-50.258990		-18.899273		-17.206639		19.385170		-53.131890		-1.245332		-1.952998		-10.521597		-0.603820		0.912826		-10.960152		-35.485845		-0.522174		67.064362		94.270185		-25.511924		-4.094284		40.812475		-15.305408		-27.011438		-15.750424		70.923504		113.744458		-19.672634		6.765481		88.297710		
1.034571		-1.986570		4.532275		90.091167		0.006465		1.624793		0.897953		35.069818		-6.024156		-9.331003		-41.899068		-23.715939		-3.978955		14.085495		32.347222		-2.653842		-11.463762		-49.379566		-19.179250		-17.053964		19.431912		-52.626141		-1.251108		-2.084111		-11.741604		-0.632465		0.951846		-13.459938		-34.992788		-1.392522		65.754070		93.984909		-25.461207		-3.980731		40.524817		-17.861783		-26.514040		-16.677036		69.896122		113.622584		-19.799734		6.792548		88.277740		
1.038990		-1.953900		5.113270		90.191963		0.006311		1.612756		0.887531		33.880021		-6.059904		-9.720679		-40.687697		-23.987323		-3.832876		13.971352		31.313260		-2.652964		-11.494852		-48.382294		-19.405627		-16.822553		19.638738		-52.530220		-1.183543		-2.109984		-12.849122		-0.594590		0.900265		-16.073672		-34.421425		-2.700661		64.442228		93.533300		-24.445588		-4.455140		40.020206		-20.199336		-26.100275		-17.358698		68.767332		113.740493		-19.870759		6.278628		88.063393		
1.043409		-1.927420		5.499878		90.252047		0.006176		1.600042		0.877173		32.963859		-6.059518		-9.977924		-39.580544		-24.252460		-3.708384		13.880106		30.524028		-2.663110		-11.540565		-47.454122		-19.641174		-16.660607		19.782119		-52.190706		-1.149041		-2.158944		-14.043416		-0.598405		0.876773		-18.594916		-33.880245		-3.786308		63.158160		93.295561		-23.908295		-4.659061		39.580754		-22.588056		-25.615224		-18.118829		67.728500		113.765270		-19.942054		6.048761		87.919547		
1.047828		-1.927830		5.764503		90.297189		0.006105		1.586879		0.866804		32.212512		-6.059070		-10.148508		-38.538914		-24.544463		-3.620979		13.803997		29.875416		-2.659991		-11.607848		-46.542050		-19.895518		-16.562041		19.835470		-51.682041		-1.160760		-2.223463		-15.356799		-0.593060		0.905197		-21.048330		-33.323722		-4.746871		61.854049		93.127425		-23.718649		-4.774903		39.395444		-24.971286		-25.106497		-18.872401		66.748364		113.767685		-20.061028		6.040386		87.839834		
1.052247		-1.898391		6.109517		90.339476		0.006088		1.573712		0.856370		31.354300		-6.029354		-10.353797		-37.489012		-24.831294		-3.534573		13.732502		29.094049		-2.690685		-11.692144		-45.551119		-20.164062		-16.484845		19.923398		-51.252890		-1.157421		-2.216759		-16.656885		-0.562227		0.878520		-23.497589		-32.710694		-5.831912		60.546482		93.019892		-23.359718		-5.035596		39.219510		-27.289176		-24.618945		-19.528566		65.792853		113.818128		-20.198404		5.967573		87.726963		
1.056667		-1.800341		6.757804		90.393396		0.006029		1.561111		0.845700		30.050362		-5.944902		-10.676992		-36.312506		-25.127149		-3.448268		13.687713		27.918232		-2.797340		-11.800525		-44.472958		-20.467356		-16.426300		20.285756		-51.186513		-1.074154		-2.045554		-17.754237		-0.540449		0.707675		-26.029739		-31.985059		-7.341532		59.249458		93.329381		-22.297617		-5.533746		38.745077		-29.453159		-24.236986		-19.919155		64.886729		113.855522		-20.351981		5.690687		87.482758		
1.061086		-1.734648		7.058025		90.430747		0.006103		1.547498		0.835117		29.230383		-5.866761		-10.884968		-35.320995		-25.388725		-3.378270		13.650573		27.180442		-2.876223		-11.868512		-43.485015		-20.777226		-16.343827		20.489994		-50.699026		-1.051160		-2.024251		-19.028649		-0.556249		0.672249		-28.393478		-31.334294		-8.392654		58.026293		93.449355		-21.953350		-5.526870		38.369514		-31.796850		-23.739631		-20.540515		64.119532		113.676602		-20.478369		5.672260		87.400647		
1.065505		-1.690924		7.197857		90.469154		0.006199		1.533425		0.824505		28.599605		-5.797555		-11.049941		-34.371777		-25.651203		-3.353066		13.609919		26.626110		-2.928233		-11.914874		-42.500743		-21.101741		-16.299342		20.546231		-50.023036		-1.052492		-2.055769		-20.377676		-0.564474		0.720063		-30.655493		-30.702078		-9.261932		56.790738		93.325707		-21.947472		-5.344567		38.185204		-34.153935		-23.201499		-21.191449		63.395880		113.366477		-20.593096		5.742609		87.390242		
1.069924		-1.639125		7.266750		90.517469		0.006003		1.519128		0.813972		28.028407		-5.726124		-11.171178		-33.407234		-25.833019		-3.357859		13.580206		26.095954		-2.935259		-11.932781		-41.379062		-21.382098		-16.278176		20.564312		-49.330092		-0.999901		-2.053367		-21.428388		-0.618043		0.763025		-32.911899		-30.193613		-10.008096		55.592254		93.181111		-21.925585		-5.152478		38.073458		-36.465225		-22.676963		-21.679093		62.787662		113.051367		-20.665610		5.782269		87.388467		
